<svg width="53" height="66" viewBox="0 0 53 66" fill="none" xmlns="http://www.w3.org/2000/svg">
<g filter="url(#filter0_d_323_80)">
<path fill-rule="evenodd" clip-rule="evenodd" d="M21.2941 0.00199755C21.3721 0.00259526 21.4397 0.00311382 21.4963 0.00318797C21.5529 0.00311382 21.6205 0.00259526 21.6985 0.00199755C22.9642 -0.00770621 26.9643 -0.0383732 31.0526 1.46878C35.4981 3.10761 40.2487 6.6574 41.6905 13.9786C42.4211 17.6887 41.7836 22.0933 40.5591 26.389C39.3178 30.7443 37.3899 35.271 35.2609 39.3567C33.1328 43.4405 30.7604 47.1665 28.5877 49.9077C27.5063 51.2721 26.4253 52.4551 25.4046 53.3208C24.8938 53.7539 24.3504 54.1487 23.7881 54.4444C23.245 54.7301 22.5406 55 21.7486 55C20.9587 55 20.2545 54.7314 19.712 54.449C19.149 54.1558 18.6019 53.7641 18.0854 53.333C17.0529 52.4713 15.9528 51.2921 14.8478 49.9292C12.6279 47.1914 10.1914 43.4679 7.99871 39.3845C5.80542 35.2999 3.81164 30.7726 2.51995 26.4152C1.24654 22.1195 0.568563 17.7039 1.30218 13.9786C2.74393 6.6574 7.49459 3.10761 11.9401 1.46878C16.0284 -0.0383732 20.0284 -0.00770621 21.2941 0.00199755ZM13.5211 6.18579C10.1524 7.42766 6.97948 9.86951 5.97113 14.9899C5.47969 17.4854 5.88716 20.9322 7.0725 24.9309C8.23957 28.8678 10.0779 33.0669 12.1528 36.931C14.2283 40.7964 16.4962 44.244 18.4796 46.6902C19.4762 47.9192 20.3526 48.8352 21.054 49.4207C21.3487 49.6666 21.5789 49.8258 21.7447 49.9223C21.904 49.8275 22.1248 49.6721 22.4068 49.4329C23.0925 48.8514 23.9485 47.9392 24.9215 46.7116C26.8576 44.2689 29.0634 40.8238 31.0774 36.9588C33.0904 33.0958 34.8686 28.8961 35.9914 24.957C37.1311 20.9584 37.516 17.5006 37.0215 14.9899C36.0132 9.86951 32.8403 7.42766 29.4716 6.18579C26.1949 4.97785 22.9269 4.99562 21.6954 5.00232C21.6226 5.00271 21.5569 5.00307 21.4988 5.00313H21.4938C21.4357 5.00307 21.37 5.00271 21.2973 5.00232C20.0658 4.99562 16.7978 4.97785 13.5211 6.18579ZM20.6656 12.318C17.201 12.7831 14.7857 15.6179 14.7857 18.6943C14.7857 21.7706 17.201 24.6054 20.6656 25.0705C19.8515 24.6728 19.2872 23.8071 19.2872 22.8031V21.1943H17.4123C16.0958 21.1943 15.0285 20.075 15.0285 18.6943C15.0285 17.3136 16.0958 16.1943 17.4123 16.1943H19.2872V14.5854C19.2872 13.5815 19.8515 12.7157 20.6656 12.318ZM22.6763 12.318C23.4904 12.7157 24.0547 13.5815 24.0547 14.5854V16.1943H25.9297C27.2462 16.1943 28.3134 17.3136 28.3134 18.6943C28.3134 20.075 27.2462 21.1943 25.9297 21.1943H24.0547V22.8031C24.0547 23.8071 23.4904 24.6728 22.6764 25.0705C26.1409 24.6054 28.5562 21.7706 28.5562 18.6943C28.5562 15.6179 26.1409 12.7831 22.6763 12.318ZM10.0183 18.6943C10.0183 12.1823 15.4265 7.25152 21.671 7.25152C27.9154 7.25152 33.3237 12.1823 33.3237 18.6943C33.3237 25.2062 27.9154 30.1371 21.671 30.1371C15.4265 30.1371 10.0183 25.2062 10.0183 18.6943Z" fill="black"/>
</g>
<defs>
<filter id="filter0_d_323_80" x="0" y="-1" width="53" height="67" filterUnits="userSpaceOnUse" color-interpolation-filters="sRGB">
<feFlood flood-opacity="0" result="BackgroundImageFix"/>
<feColorMatrix in="SourceAlpha" type="matrix" values="0 0 0 0 0 0 0 0 0 0 0 0 0 0 0 0 0 0 127 0" result="hardAlpha"/>
<feOffset dx="5" dy="5"/>
<feGaussianBlur stdDeviation="3"/>
<feComposite in2="hardAlpha" operator="out"/>
<feColorMatrix type="matrix" values="0 0 0 0 0 0 0 0 0 0 0 0 0 0 0 0 0 0 0.5 0"/>
<feBlend mode="darken" in2="BackgroundImageFix" result="effect1_dropShadow_323_80"/>
<feBlend mode="normal" in="SourceGraphic" in2="effect1_dropShadow_323_80" result="shape"/>
</filter>
</defs>
</svg>
