<svg width="28" height="37" viewBox="0 0 28 37" fill="none" xmlns="http://www.w3.org/2000/svg">
<path d="M3.58687 36.3846V29.3846H4.40687L9.03687 35.1346H8.60687V29.3846H9.60686V36.3846H8.78687L4.15687 30.6346H4.58687V36.3846H3.58687Z" fill="#DDDDDD"/>
<path d="M12.6021 32.6946H16.2121V33.5546H12.6021V32.6946ZM12.7021 36.3846H11.7021V29.3846H16.6421V30.2546H12.7021V36.3846Z" fill="#DDDDDD"/>
<path d="M17.4298 36.3846V35.7046L22.1398 29.8646L22.2498 30.2546H17.4998V29.3846H23.1498V30.0646L18.4598 35.9046L18.3398 35.5146H23.2798V36.3846H17.4298Z" fill="#DDDDDD"/>
<path d="M22.2049 3.57794H6.15299C4.89177 3.57794 3.87133 4.60031 3.87133 5.84987L3.85986 21.7534C3.85986 23.0029 4.89177 24.0253 6.15299 24.0253H22.2049C23.4661 24.0253 24.498 23.0029 24.498 21.7534V5.84987C24.498 4.60031 23.4661 3.57794 22.2049 3.57794ZM22.2049 21.7534H6.15299V5.84987H22.2049V21.7534ZM12.4591 19.4815H15.8988V15.5056H19.9117V12.0977H15.8988V8.1218H12.4591V12.0977H8.44612V15.5056H12.4591V19.4815Z" fill="#DDDDDD"/>
</svg>
